{"title":"Dexter s06e05 HDTV XViD AC3 DTRG","uid":6785474,"size":590793103,"categoryP":"video","categoryS":"tv_shows","magnet":"?xt=urn:btih:49eb45bce3bbc319a34d31d1e890c502da05218f&amp;dn=Dexter+s06e05+HDTV+XViD+AC3+DTRG&amp;tr=udp%3A%2F%2Ftracker.openbittorrent.com%3A80&amp;tr=udp%3A%2F%2Fopen.demonii.com%3A1337&amp;tr=udp%3A%2F%2Ftracker.coppersurfer.tk%3A6969&amp;tr=udp%3A%2F%2Fexodus.desync.com%3A6969","seeders":1,"leechers":1,"uploader":"SAFCukO09","files":3,"time":1320071194,"description":"Format : AVI\nFormat/Info : Audio Video Interleave\nFile size : 563 MiB\nDuration : 51mn 28s\nOverall bit rate : 1 530 Kbps\nWriting application : VirtualDubMod 1.5.10.2 (build 2540/release)\nWriting library : VirtualDubMod build 2540/release\n\nVideo\nID : 0\nFormat : MPEG-4 Visual\nFormat profile : Advanced Simple@L5\nFormat settings, BVOP : 2\nFormat settings, QPel : No\nFormat settings, GMC : No warppoints\nFormat settings, Matrix : Default (H.263)\nMuxing mode : Packed bitstream\nCodec ID : XVID\nCodec ID/Hint : XviD\nDuration : 51mn 28s\nBit rate : 1 137 Kbps\nWidth : 624 pixels\nHeight : 352 pixels\nDisplay aspect ratio : 16:9\nFrame rate : 23.976 fps\nColor space : YUV\nChroma subsampling : 4:2:0\nBit depth : 8 bits\nScan type : Progressive\nCompression mode : Lossy\nBits/(Pixel*Frame) : 0.216\nStream size : 419 MiB (74%)\nWriting library : XviD 64\n\nAudio\nID : 1\nFormat : AC-3\nFormat/Info : Audio Coding 3\nMode extension : CM (complete main)\nCodec ID : 2000\nDuration : 51mn 28s\nBit rate mode : Constant\nBit rate : 384 Kbps\nChannel(s) : 6 channels\nChannel positions : Front: L C R, Side: L R, LFE\nSampling rate : 48.0 KHz\nBit depth : 16 bits\nCompression mode : Lossy\nStream size : 141 MiB (25%)\nAlignment : Split accross interleaves\nInterleave, duration : 42 ms (1.00 video frame)\nInterleave, preload duration : 500 ms\n\n\n\n\n\n\n\nDexter: The Angel of Death\n\n\nWith the help of his newfound friend Brother Sam, Dexter wonders if there is light within him to counter the darkness, while the search for the Doomsday Killers takes him in a new direction; Batista and Quinn pay a visit to the university where Professor Gellar taught; due to departmental regulations following the shooting, Debra is forced to begin therapy.\n\n\n\n\n\n\n\n\n\n\n\n\n\n\n\n\nSource Used\n\n\nIMMERSE x264 720p .......Thanks\n\n\n\nEnjoy\n\n\n\n\n\nGreetz to IMAGiNE,Flawl3ss,BDK,Ez,CreWsaDe,TaRiQ786,ETRG,BHRG,iLLUMiNATi,ViSUALiSE,MiSTERE\n","torrent":{"xt":"urn:btih:49eb45bce3bbc319a34d31d1e890c502da05218f","amp;dn":"Dexter+s06e05+HDTV+XViD+AC3+DTRG","amp;tr":["udp%3A%2F%2Ftracker.openbittorrent.com%3A80","udp%3A%2F%2Fopen.demonii.com%3A1337","udp%3A%2F%2Ftracker.coppersurfer.tk%3A6969","udp%3A%2F%2Fexodus.desync.com%3A6969"],"infoHash":"49eb45bce3bbc319a34d31d1e890c502da05218f","infoHashBuffer":{"type":"Buffer","data":[73,235,69,188,227,187,195,25,163,77,49,209,232,144,197,2,218,5,33,143]},"announce":[],"urlList":[]}}